<svg xmlns="http://www.w3.org/2000/svg" viewBox="0 0 841 164" role="img" aria-label="vAfrica Airlines">
  <g transform="translate(7,7) scale(0.29297)">
  <defs><clipPath id="rd"><circle cx="256" cy="256" r="224"/></clipPath></defs>
  <circle cx="256" cy="256" r="250" fill="#EFEDEC"/>
  <circle cx="256" cy="256" r="238" fill="#0B2628"/>
  <circle cx="256" cy="256" r="224" fill="#009B8D"/>
    <rect x="0" y="243" width="512" height="7" fill="#8DDFF1" clip-path="url(#rd)"/>
    <rect x="0" y="250" width="512" height="9" fill="#02B4DC" clip-path="url(#rd)"/>
    <rect x="0" y="259" width="512" height="4" fill="#8DDFF1" clip-path="url(#rd)"/>
    <rect x="0" y="366" width="512" height="5" fill="#EFEDEC" clip-path="url(#rd)"/>
    <rect x="0" y="371" width="512" height="27" fill="#BA4D00" clip-path="url(#rd)"/>
    <rect x="0" y="398" width="512" height="3" fill="#EFEDEC" clip-path="url(#rd)"/>
    <rect x="0" y="401" width="512" height="29" fill="#7D3814" clip-path="url(#rd)"/>
    <rect x="0" y="430" width="512" height="51" fill="#4d240f" clip-path="url(#rd)"/>
  <path d="M158.4,106.0 L114.3,161.2 L115.4,206.3 L144.1,233.9 L190.3,226.5 L199.8,236.1 L218.9,240.3 L217.9,262.6 L238.6,297.6 L232.2,328.4 L266.2,398.0 L293.8,393.2 L324.6,354.5 L323.5,335.9 L345.8,318.4 L341.6,273.8 L375.6,237.6 L385.7,208.4 L355.4,210.6 L316.6,148.4 L314.0,128.8 L264.1,121.4 L251.9,131.5 L218.4,115.0 L220.0,98.0 Z" fill="#0B2628" stroke="#fff" stroke-width="7" stroke-linejoin="round" paint-order="stroke"/>
  <g transform="translate(300,232) rotate(38) scale(9.6) translate(-11.5,-12)"><path d="M22,16V14L13,9V3.5A1.5,1.5 0 0,0 11.5,2A1.5,1.5 0 0,0 10,3.5V9L1,14V16L10,13.5V19L8,20.5V22L11.5,21L15,22V20.5L13,19V13.5L22,16Z" fill="#fff" stroke="#0B2628" stroke-width="0.9" stroke-linejoin="round" paint-order="stroke"/></g>
</g>
  <g fill="#EFEDEC">
<path d="M731 0H395L8 1082H305L494 477Q509 427 565 227Q575 268 606.0 371.0Q637 474 836 1082H1130Z" transform="translate(176.00,111.24) scale(0.04199,-0.04199)"/>
<path d="M1133 0 1008 360H471L346 0H51L565 1409H913L1425 0ZM739 1192 733 1170Q723 1134 709.0 1088.0Q695 1042 537 582H942L803 987L760 1123Z" transform="translate(225.33,111.24) scale(0.04199,-0.04199)"/>
<path d="M473 892V0H193V892H35V1082H193V1195Q193 1342 271.0 1413.0Q349 1484 508 1484Q587 1484 686 1468V1287Q645 1296 604 1296Q532 1296 502.5 1267.5Q473 1239 473 1167V1082H686V892Z" transform="translate(288.94,111.24) scale(0.04199,-0.04199)"/>
<path d="M143 0V828Q143 917 140.5 976.5Q138 1036 135 1082H403Q406 1064 411.0 972.5Q416 881 416 851H420Q461 965 493.0 1011.5Q525 1058 569.0 1080.5Q613 1103 679 1103Q733 1103 766 1088V853Q698 868 646 868Q541 868 482.5 783.0Q424 698 424 531V0Z" transform="translate(319.07,111.24) scale(0.04199,-0.04199)"/>
<path d="M143 1277V1484H424V1277ZM143 0V1082H424V0Z" transform="translate(354.04,111.24) scale(0.04199,-0.04199)"/>
<path d="M594 -20Q348 -20 214.0 126.5Q80 273 80 535Q80 803 215.0 952.5Q350 1102 598 1102Q789 1102 914.0 1006.0Q1039 910 1071 741L788 727Q776 810 728.0 859.5Q680 909 592 909Q375 909 375 546Q375 172 596 172Q676 172 730.0 222.5Q784 273 797 373L1079 360Q1064 249 999.5 162.0Q935 75 830.0 27.5Q725 -20 594 -20Z" transform="translate(379.44,111.24) scale(0.04199,-0.04199)"/>
<path d="M393 -20Q236 -20 148.0 65.5Q60 151 60 306Q60 474 169.5 562.0Q279 650 487 652L720 656V711Q720 817 683.0 868.5Q646 920 562 920Q484 920 447.5 884.5Q411 849 402 767L109 781Q136 939 253.5 1020.5Q371 1102 574 1102Q779 1102 890.0 1001.0Q1001 900 1001 714V320Q1001 229 1021.5 194.5Q1042 160 1090 160Q1122 160 1152 166V14Q1127 8 1107.0 3.0Q1087 -2 1067.0 -5.0Q1047 -8 1024.5 -10.0Q1002 -12 972 -12Q866 -12 815.5 40.0Q765 92 755 193H749Q631 -20 393 -20ZM720 501 576 499Q478 495 437.0 477.5Q396 460 374.5 424.0Q353 388 353 328Q353 251 388.5 213.5Q424 176 483 176Q549 176 603.5 212.0Q658 248 689.0 311.5Q720 375 720 446Z" transform="translate(428.76,111.24) scale(0.04199,-0.04199)"/>
<path d="M1133 0 1008 360H471L346 0H51L565 1409H913L1425 0ZM739 1192 733 1170Q723 1134 709.0 1088.0Q695 1042 537 582H942L803 987L760 1123Z" transform="translate(503.49,111.24) scale(0.04199,-0.04199)"/>
<path d="M143 1277V1484H424V1277ZM143 0V1082H424V0Z" transform="translate(567.09,111.24) scale(0.04199,-0.04199)"/>
<path d="M143 0V828Q143 917 140.5 976.5Q138 1036 135 1082H403Q406 1064 411.0 972.5Q416 881 416 851H420Q461 965 493.0 1011.5Q525 1058 569.0 1080.5Q613 1103 679 1103Q733 1103 766 1088V853Q698 868 646 868Q541 868 482.5 783.0Q424 698 424 531V0Z" transform="translate(592.49,111.24) scale(0.04199,-0.04199)"/>
<path d="M143 0V1484H424V0Z" transform="translate(627.46,111.24) scale(0.04199,-0.04199)"/>
<path d="M143 1277V1484H424V1277ZM143 0V1082H424V0Z" transform="translate(652.85,111.24) scale(0.04199,-0.04199)"/>
<path d="M844 0V607Q844 892 651 892Q549 892 486.5 804.5Q424 717 424 580V0H143V840Q143 927 140.5 982.5Q138 1038 135 1082H403Q406 1063 411.0 980.5Q416 898 416 867H420Q477 991 563.0 1047.0Q649 1103 768 1103Q940 1103 1032.0 997.0Q1124 891 1124 687V0Z" transform="translate(678.24,111.24) scale(0.04199,-0.04199)"/>
<path d="M586 -20Q342 -20 211.0 124.5Q80 269 80 546Q80 814 213.0 958.0Q346 1102 590 1102Q823 1102 946.0 947.5Q1069 793 1069 495V487H375Q375 329 433.5 248.5Q492 168 600 168Q749 168 788 297L1053 274Q938 -20 586 -20ZM586 925Q487 925 433.5 856.0Q380 787 377 663H797Q789 794 734.0 859.5Q679 925 586 925Z" transform="translate(732.27,111.24) scale(0.04199,-0.04199)"/>
<path d="M1055 316Q1055 159 926.5 69.5Q798 -20 571 -20Q348 -20 229.5 50.5Q111 121 72 270L319 307Q340 230 391.5 198.0Q443 166 571 166Q689 166 743.0 196.0Q797 226 797 290Q797 342 753.5 372.5Q710 403 606 424Q368 471 285.0 511.5Q202 552 158.5 616.5Q115 681 115 775Q115 930 234.5 1016.5Q354 1103 573 1103Q766 1103 883.5 1028.0Q1001 953 1030 811L781 785Q769 851 722.0 883.5Q675 916 573 916Q473 916 423.0 890.5Q373 865 373 805Q373 758 411.5 730.5Q450 703 541 685Q668 659 766.5 631.5Q865 604 924.5 566.0Q984 528 1019.5 468.5Q1055 409 1055 316Z" transform="translate(781.60,111.24) scale(0.04199,-0.04199)"/>
  </g>
</svg>